HIERARCHY
ROOT Hip
{
  OFFSET 0.0 0.0 0.0
  CHANNELS 6 Xposition Yposition Zposition Xrotation Yrotation Zrotation
  JOINT LowerSpine
  {
    OFFSET 0.0 0.061367 -0.03653
    CHANNELS 3 Xrotation Yrotation Zrotation
    JOINT MiddleSpine
    {
      OFFSET 0.0 0.056002 0.002633
      CHANNELS 3 Xrotation Yrotation Zrotation
      JOINT Chest
      {
        OFFSET 0.0 0.069296 -0.013882
        CHANNELS 3 Xrotation Yrotation Zrotation
        JOINT Neck
        {
          OFFSET 0.0 0.156156 -0.002923
          CHANNELS 3 Xrotation Yrotation Zrotation
          JOINT Head
          {
            OFFSET 0.0 0.088183 0.023986
            CHANNELS 3 Xrotation Yrotation Zrotation
            End Site
            {
              OFFSET 1e-06 0.123215 0.003678
            }
          }
        }
        JOINT LClavicle
        {
          OFFSET 0.014189 0.150698 0.046467
          CHANNELS 3 Xrotation Yrotation Zrotation
          JOINT LShoulder
          {
            OFFSET 0.082893 0.021616 -0.034976
            CHANNELS 3 Xrotation Yrotation Zrotation
            JOINT LForearm
            {
              OFFSET 0.195645 -0.000695 -0.001695
              CHANNELS 3 Xrotation Yrotation Zrotation
              JOINT LHand
              {
                OFFSET 0.163209 0.000474 -0.000977
                CHANNELS 3 Xrotation Yrotation Zrotation
                End Site
                {
                  OFFSET 0.0 0.006864 0.0
                }
              }
            }
          }
        }
        JOINT RClavicle
        {
          OFFSET -0.014189 0.150698 0.046467
          CHANNELS 3 Xrotation Yrotation Zrotation
          JOINT RShoulder
          {
            OFFSET -0.082908 0.021619 -0.034982
            CHANNELS 3 Xrotation Yrotation Zrotation
            JOINT RForearm
            {
              OFFSET -0.195645 -0.000695 -0.001695
              CHANNELS 3 Xrotation Yrotation Zrotation
              JOINT RHand
              {
                OFFSET -0.163209 0.000474 -0.000977
                CHANNELS 3 Xrotation Yrotation Zrotation
                End Site
                {
                  OFFSET 0.0 0.006864 0.0
                }
              }
            }
          }
        }
      }
    }
  }
  JOINT RThigh
  {
    OFFSET -0.072558 0.02774 -0.005953
    CHANNELS 3 Xrotation Yrotation Zrotation
    JOINT RShin
    {
      OFFSET -0.005253 -0.285537 0.0
      CHANNELS 3 Xrotation Yrotation Zrotation
      JOINT RFoot
      {
        OFFSET 0.0 -0.28038 0.0
        CHANNELS 3 Xrotation Yrotation Zrotation
        JOINT RToe
        {
          OFFSET 0.0 -0.030816 0.064441
          CHANNELS 3 Xrotation Yrotation Zrotation
          End Site
          {
            OFFSET 0.0 0.0 0.043231
          }
        }
      }
    }
  }
  JOINT LThigh
  {
    OFFSET 0.072557 0.027741 -0.005953
    CHANNELS 3 Xrotation Yrotation Zrotation
    JOINT LShin
    {
      OFFSET 0.005253 -0.285539 0.0
      CHANNELS 3 Xrotation Yrotation Zrotation
      JOINT LFoot
      {
        OFFSET 0.0 -0.28038 0.0
        CHANNELS 3 Xrotation Yrotation Zrotation
        JOINT LToe
        {
          OFFSET 0.0 -0.030816 0.064441
          CHANNELS 3 Xrotation Yrotation Zrotation
          End Site
          {
            OFFSET 0.0 0.0 0.043231
          }
        }
      }
    }
  }
}
MOTION
Frames: 5
Frame Time: 0.03333333333333333
-0.004329 0.494137 -0.161619 11.643284 2.120942 -0.265 5.981918 -0.061531 -2.456885 0.110522 1.108953 -1.607978 -0.098835 0.176878 -2.12811 3.645759 0.842387 1.130822 -0.201036 0.758031 0.135665 -1.13714 2.119648 -2.6558 -1.074467 -34.446411 -49.731861 -2.153905 -80.655823 1.63876 -0.133225 -0.212311 -0.024735 -1.35573 0.546191 5.506254 -15.980222 39.458794 72.671043 152.233505 77.321381 -166.404587 0.719964 -0.360256 0.06444 -46.914867 -2.828982 -5.189929 45.480869 -3.910761 9.055107 -5.011465 0.304871 0.863662 0.513235 0.07307 -0.22727 -41.579315 8.459492 12.816276 43.068924 12.054914 -12.716346 -6.926535 2.150082 0.090783 -0.326149 0.246034 0.164834 
0.006554 0.480079 -0.135335 3.319541 0.578417 -0.022379 6.814976 -0.613023 -1.166936 0.032187 2.533016 -0.443561 -0.595192 4.55127 -2.731165 4.56952 1.086706 0.993535 -0.034694 0.127411 0.007198 -1.743675 -0.064326 -2.232791 -1.799355 -30.874128 -52.106926 18.781593 -83.911148 25.415173 -0.043657 -0.073613 -0.020885 -3.041709 -0.023119 4.32168 -10.377386 27.041277 67.014923 155.941025 69.174873 -170.906143 0.140788 -0.120056 0.006162 -35.944958 -3.548899 -3.468674 40.394321 -3.058596 7.270538 -4.979894 -0.015028 0.229573 0.14258 0.07443 -0.125236 -25.221502 11.206909 12.758351 33.189392 9.568558 -12.151455 -6.999413 1.759647 0.521211 -0.090843 -0.013294 0.047262 
0.008256 0.489868 -0.110443 1.854519 1.039881 0.417919 6.460973 -0.596169 -0.742254 0.408054 3.12447 -0.249972 1.021951 5.96895 -1.478487 4.622645 1.1016 0.535693 0.017849 -0.028357 -0.032136 -1.704435 -0.70244 -2.700957 -1.067591 -27.777655 -55.077797 48.142204 -85.946869 54.067776 -0.027594 -0.013883 0.003351 -2.880452 -0.37671 4.91583 -9.704919 24.216143 67.140526 160.569351 67.617599 -173.715088 0.039898 -0.090619 -0.014026 -33.149406 -4.489791 -2.782373 40.359398 -3.267686 6.547376 -4.668961 0.031633 0.017831 0.003737 0.152051 -0.038796 -21.291822 12.419802 11.813016 30.105005 8.721041 -11.857722 -6.014905 1.330882 0.662469 -0.04825 -0.05528 0.022597 
0.013823 0.493781 -0.100133 1.680876 1.609453 0.676826 6.17531 -0.606548 -0.496099 0.599247 3.355206 -0.081729 1.321963 6.642024 -0.796125 4.630902 1.111928 0.360429 0.047699 -0.120092 -0.043733 -1.72177 -1.027706 -2.917875 0.244589 -25.21084 -56.127151 118.318016 -85.924408 123.5877 -0.01867 0.016748 0.007002 -2.728863 -0.424902 5.160666 -9.870678 24.688175 67.442642 163.057434 68.887131 -174.296051 -0.04835 -0.047985 -0.030159 -33.129326 -5.343759 -2.326361 41.819927 -3.438231 5.922801 -4.449708 -0.055302 -0.146282 -0.068204 0.153511 0.011526 -21.39979 12.433057 11.483776 30.367325 7.565559 -11.986593 -5.139762 0.901067 0.658369 -0.015303 -0.070477 0.00314 
0.015334 0.492497 -0.096182 1.037086 2.436497 1.009302 5.900868 -0.605944 -0.343142 0.783173 3.419706 -0.049016 1.747816 6.921875 -0.718724 4.463408 1.076359 0.291146 0.049102 -0.170255 -0.042696 -1.692692 -1.294804 -2.918734 1.143427 -23.854382 -55.928501 153.380508 -82.192093 157.584335 -0.015652 0.025184 0.006495 -2.636391 -0.409877 5.280856 -10.210327 26.130741 67.471527 165.663193 69.691612 -175.176453 -0.091646 -0.011717 -0.031635 -32.708523 -5.478004 -2.272009 42.609657 -3.189171 5.40479 -4.62408 -0.059839 -0.225291 -0.099819 0.141726 0.035126 -20.866774 12.049771 11.400583 30.416332 6.547078 -12.228906 -4.701618 0.563797 0.54994 -0.007287 -0.069978 -0.003731 
